<svg xmlns="http://www.w3.org/2000/svg" viewBox="0 0 64 64"><defs><style>.cls-1{fill:none;}.cls-2{fill:blue;}.cls-3{fill:#fff;}</style></defs><title>logo</title><g id="Layer_1" data-name="Layer 1"><path class="cls-1" d="M0,0H64V64H0Z"/><path class="cls-2" d="M32,5.33A26.67,26.67,0,1,0,58.67,32,26.66,26.66,0,0,0,32,5.33Zm18.48,16H42.59a42.08,42.08,0,0,0-3.68-9.49A21.42,21.42,0,0,1,50.45,21.33ZM32,10.77a37.51,37.51,0,0,1,5.09,10.56H26.91A37.51,37.51,0,0,1,32,10.77ZM11.36,37.33a20.93,20.93,0,0,1,0-10.66h9A44.72,44.72,0,0,0,20,32a44.72,44.72,0,0,0,.37,5.33Zm2.19,5.34h7.86a42.08,42.08,0,0,0,3.68,9.49A21.33,21.33,0,0,1,13.55,42.67Zm7.86-21.34H13.55a21.33,21.33,0,0,1,11.54-9.49A42.08,42.08,0,0,0,21.41,21.33ZM32,53.23a37.51,37.51,0,0,1-5.09-10.56H37.09A37.51,37.51,0,0,1,32,53.23Zm6.24-15.9H25.76A39.23,39.23,0,0,1,25.33,32a38.84,38.84,0,0,1,.43-5.33H38.24A38.84,38.84,0,0,1,38.67,32,39.23,39.23,0,0,1,38.24,37.33Zm.67,14.83a42.08,42.08,0,0,0,3.68-9.49h7.86A21.42,21.42,0,0,1,38.91,52.16Zm4.72-14.83A44.72,44.72,0,0,0,44,32a44.72,44.72,0,0,0-.37-5.33h9a20.93,20.93,0,0,1,0,10.66Z"/></g><g id="Layer_2" data-name="Layer 2"><path class="cls-3" d="M28.23,55.27V16a2.73,2.73,0,0,1,4.89-1.67L51,37.42a2.73,2.73,0,0,0,4.89-1.68V14a2.74,2.74,0,0,1,2.73-2.74h.26A2.74,2.74,0,0,1,61.6,14v38.9a2.73,2.73,0,0,1-4.89,1.68l-17.87-23A2.73,2.73,0,0,0,34,33.23v22A2.74,2.74,0,0,1,31.21,58H31A2.73,2.73,0,0,1,28.23,55.27Z"/><path class="cls-3" d="M1.6,52.44V13.51a2.73,2.73,0,0,1,4.93-1.63L23.1,34.24A2.73,2.73,0,0,0,28,32.62V11.14A2.74,2.74,0,0,1,30.76,8.4h0a2.74,2.74,0,0,1,2.73,2.74V49.75a2.73,2.73,0,0,1-4.92,1.63L12,29.06a2.74,2.74,0,0,0-4.93,1.63V52.44a2.73,2.73,0,0,1-2.73,2.73h0A2.74,2.74,0,0,1,1.6,52.44Z"/></g><g id="Layer_3" data-name="Layer 3"><path class="cls-3" d="M36.48,12.4A2.58,2.58,0,0,0,33.9,15V41a2.58,2.58,0,0,1-2.58,2.58h-.78A2.58,2.58,0,0,1,28,41V15a2.58,2.58,0,0,0-2.58-2.58H21.5a2.57,2.57,0,0,1-2.58-2.58h0A2.58,2.58,0,0,1,21.5,7.24H40.33a2.58,2.58,0,0,1,2.58,2.58h0a2.57,2.57,0,0,1-2.58,2.58H36.48Z"/></g></svg>